<svg width="342" height="78" viewBox="0 0 342 78" fill="none" xmlns="http://www.w3.org/2000/svg">
<path d="M63.345 33.8008C54.671 39.3818 45.444 44.1018 35.842 47.8698C33.197 48.9078 30.503 49.8838 28.09 51.3838C25.644 52.9038 23.554 54.9208 21.483 56.9228C15.033 63.1568 7.45 70.8898 1 77.1248H2.064C2.633 76.6688 3.165 76.1858 3.649 75.7018C16.107 66.9808 26.073 59.5068 41.023 55.7688C50.486 53.6658 56.404 42.6968 64.01 34.8298C63.877 34.5528 63.741 34.2768 63.611 33.9988C63.523 33.9308 63.435 33.8598 63.345 33.8008Z" stroke="#6D4C41" stroke-miterlimit="10" stroke-linecap="round" stroke-linejoin="round"/>
<path d="M63.611 33.9978C63.741 34.2758 63.877 34.5518 64.01 34.8288C64.098 34.7378 64.184 34.6418 64.272 34.5508C64.055 34.3458 63.834 34.1638 63.611 33.9978Z" stroke="#6D4C41" stroke-miterlimit="10" stroke-linecap="round" stroke-linejoin="round"/>
<path d="M112.034 52.0309C123.176 45.3459 137.288 42.6229 145.496 32.3249C143.472 27.3289 138.278 23.7759 132.883 23.7429C131.277 23.7329 129.622 23.9989 128.099 23.4909C124.544 22.3059 123.966 18.2679 122.991 14.3649C122.617 12.8709 121.452 11.9059 120.128 11.6079C117.748 17.8209 115.217 23.8769 112.035 29.6059C125.738 33.3439 117.017 44.5559 112.034 52.0309Z" fill="#6D4C41" stroke="#6D4C41" stroke-miterlimit="10" stroke-linecap="round" stroke-linejoin="round"/>
<path d="M150.245 28.0607C148.373 29.1797 146.752 30.7067 145.6 32.5657C145.569 32.4837 145.53 32.4057 145.497 32.3247C137.288 42.6227 123.176 45.3457 112.035 52.0307C117.018 44.5557 125.739 33.3437 112.035 29.6067C115.218 23.8777 117.748 17.8217 120.128 11.6087C118.99 11.3527 117.735 11.5847 116.749 12.4677L102.607 25.1357L97.339 21.6127C94.982 21.9757 93.044 23.5987 91.239 25.1587C87.866 28.0737 84.493 30.9887 81.12 33.9037C78.282 36.3567 75.228 38.9117 71.517 39.4567C68.283 39.9317 66.339 36.4997 64.274 34.5527C64.185 34.6427 64.1 34.7387 64.012 34.8307C67.526 42.1207 72.066 48.8657 78.399 52.0327C85.874 57.0157 94.595 54.5247 100.823 61.9987C103.315 63.2447 107.052 64.4907 109.544 63.2447C119.51 58.2617 129.477 50.7867 136.952 61.9987C144.824 53.1387 151.912 40.3937 150.245 28.0607Z" stroke="#6D4C41" stroke-miterlimit="10" stroke-linecap="round" stroke-linejoin="round"/>
<path d="M241.598 37.0808C241.598 32.0978 226.648 30.8518 225.402 19.6398C226.648 19.6398 229.139 19.6398 230.385 19.6398C226.743 14.5408 221.826 10.2898 217.372 5.6498C215.749 4.7698 214.19 3.4078 212.577 2.4968C206.555 -0.906195 198.976 2.06281 193.11 5.72881C185.174 10.6898 178.036 16.9238 172.053 24.1218C170.91 25.4968 169.702 26.9808 167.991 27.4988C167.262 27.7188 166.525 27.7308 165.784 27.6428C176.543 33.7888 187.428 39.0158 199.24 43.3108C206.715 44.5568 212.944 45.8028 219.173 49.5398C215.436 42.0648 214.19 33.3448 209.207 25.8698C220.419 42.0648 231.631 55.7688 251.564 59.5068C244.089 55.7678 241.598 45.8018 241.598 37.0808Z" stroke="#6D4C41" stroke-miterlimit="10" stroke-linecap="round" stroke-linejoin="round"/>
<path d="M261.531 39.5728C270.252 48.2938 280.218 57.0138 291.43 64.4888C283.955 58.2598 277.726 49.5388 275.235 42.0638C272.589 33.2438 269.315 26.2968 265.42 19.4548C264.907 20.1938 264.632 21.1858 264.262 22.0388C262.392 26.3458 256.633 27.7658 252.16 26.3378C249.891 25.6138 247.884 24.3578 246.027 22.8598C248.512 30.7398 257.278 34.2568 261.531 39.5728Z" stroke="#6D4C41" stroke-miterlimit="10" stroke-linecap="round" stroke-linejoin="round"/>
<path d="M301.576 42.6097C298.109 41.1007 293.88 40.2827 291.973 37.0177C291.108 35.5367 290.878 33.7487 289.989 32.2817C288.966 30.5927 287.196 29.5227 285.495 28.5187C280.332 25.4717 275.168 22.4247 270.005 19.3777C268.911 18.7317 267.595 18.0677 266.43 18.5757C265.997 18.7647 265.679 19.0797 265.418 19.4547C269.313 26.2967 272.587 33.2437 275.233 42.0637C277.725 49.5387 283.954 58.2597 291.428 64.4887C280.216 57.0137 270.249 48.2937 261.529 39.5727C257.276 34.2567 248.51 30.7397 246.024 22.8597C244.22 21.4037 242.559 19.7187 240.945 18.0607C237.261 14.2747 233.576 10.4887 229.892 6.70273C228.869 5.65173 227.691 4.52974 226.225 4.48774C224.473 4.43874 223.073 5.94873 221.373 6.37873C219.961 6.73573 218.645 6.34173 217.369 5.64973C221.823 10.2907 226.74 14.5407 230.382 19.6397C229.136 19.6397 226.645 19.6397 225.399 19.6397C226.645 30.8517 241.595 32.0977 241.595 37.0807C241.595 45.8017 244.087 55.7677 251.561 59.5047C231.628 55.7677 220.416 42.0637 209.204 25.8677C214.187 33.3427 215.433 42.0627 219.17 49.5377C212.941 45.8007 206.712 44.5547 199.237 43.3087C187.425 39.0137 176.54 33.7867 165.781 27.6407C164.241 27.4567 162.686 26.7997 161.158 26.3907C157.495 25.4127 153.488 26.1187 150.242 28.0587C151.909 40.3927 144.821 53.1377 136.948 61.9957C129.473 50.7837 119.507 58.2587 109.54 63.2417C107.048 64.4877 103.311 63.2417 100.819 61.9957C94.59 54.5207 85.869 57.0127 78.395 52.0297C72.062 48.8627 67.522 42.1177 64.008 34.8277C56.401 42.6957 50.484 53.6637 41.021 55.7667C26.071 59.5037 16.105 66.9787 3.64701 75.6997C3.16301 76.1837 2.63101 76.6667 2.06201 77.1227H341.45C327.469 70.1817 315.891 48.8387 301.576 42.6097Z" fill="#6D4C41" stroke="#6D4C41" stroke-miterlimit="10" stroke-linecap="round" stroke-linejoin="round"/>
<path d="M24.117 58.4247C25.395 56.8167 26.752 55.2437 28.417 53.9587C29.239 53.3077 30.153 52.7537 31.134 52.3267C32.094 51.8907 33.241 51.6807 34.166 51.4977C35.09 51.3417 35.705 50.7277 36.433 49.9637C37.173 49.2277 37.943 48.5187 38.778 47.8947C40.427 46.6217 42.273 45.6167 44.21 44.9167C42.44 45.9687 40.79 47.1657 39.274 48.4977C38.523 49.1727 37.794 49.8677 37.12 50.6157C36.778 50.9897 36.415 51.3887 35.963 51.7407C35.519 52.1017 34.926 52.3547 34.394 52.4707C33.309 52.6667 32.424 52.8227 31.492 53.1997C30.572 53.5437 29.708 54.0407 28.87 54.5897C27.205 55.7097 25.675 57.0807 24.117 58.4247Z" fill="#6D4C41"/>
<path d="M74.153 46.4428C76.516 43.7468 78.956 41.1278 81.409 38.5208C82.624 37.2058 83.875 35.9268 85.11 34.6318L86.981 32.7068C87.308 32.3838 87.566 32.0758 87.974 31.7238C88.179 31.5558 88.447 31.3868 88.767 31.3168C89.083 31.2428 89.39 31.2768 89.646 31.3308C90.166 31.4518 90.533 31.6308 90.895 31.6598C91.266 31.7018 91.654 31.6708 92.042 31.5658C92.821 31.3638 93.572 30.9308 94.318 30.4708C95.833 29.5378 97.307 28.5398 98.772 27.5278C100.235 26.5118 101.662 25.4408 103.056 24.3268C104.475 23.2418 105.828 22.0738 107.195 20.9148C104.764 23.5508 102.079 25.9558 99.227 28.1478C97.814 29.2618 96.325 30.2758 94.825 31.2698C94.063 31.7618 93.248 32.2458 92.291 32.5098C91.816 32.6428 91.298 32.6978 90.78 32.6418C90.244 32.5908 89.786 32.3778 89.433 32.3068C89.06 32.2318 88.885 32.2618 88.595 32.4898C88.321 32.7178 87.987 33.0858 87.676 33.3898L85.782 35.2918C84.507 36.5468 83.249 37.8198 81.954 39.0558C79.388 41.5528 76.81 44.0358 74.153 46.4428Z" fill="#6D4C41"/>
<path d="M125.214 42.8618C122.323 45.6818 119.074 48.1128 115.664 50.2718C113.951 51.3398 112.197 52.3438 110.394 53.2498C108.609 54.1648 106.781 54.9678 105.341 56.4018C106.484 54.7038 108.31 53.5818 110.017 52.5668C111.731 51.5288 113.444 50.4988 115.132 49.4258C118.529 47.3118 121.833 45.0658 125.214 42.8618Z" fill="#6D4C41"/>
<path d="M140.458 48.1639C142.754 45.1989 144.71 41.9979 146.299 38.6319C147.089 36.9459 147.773 35.2189 148.358 33.4499C148.664 32.5609 148.996 31.6589 149.461 30.7949C149.922 29.9359 150.549 29.1079 151.391 28.5139L151.919 29.2529C149.447 31.0729 147.358 33.3599 145.413 35.7549C143.468 38.1579 141.707 40.7229 139.898 43.2659C139.441 43.8929 139.016 44.5599 138.435 45.1599C137.861 45.7729 137.118 46.2209 136.387 46.5409C134.909 47.1559 133.464 47.6579 132.002 48.2219C129.083 49.3149 126.152 50.3799 123.21 51.4159C126.06 50.1479 128.921 48.9089 131.793 47.6989C133.217 47.0889 134.697 46.5099 136.075 45.8759C136.756 45.5439 137.359 45.1459 137.835 44.5999C138.316 44.0559 138.744 43.4099 139.19 42.7689C140.963 40.2119 142.7 37.6109 144.649 35.1439C146.589 32.6759 148.814 30.3859 151.383 28.5189L151.911 29.2579C150.485 30.2359 149.775 32.0019 149.143 33.7299C148.486 35.4959 147.725 37.2329 146.862 38.9089C145.15 42.2709 142.975 45.3869 140.458 48.1639Z" fill="#6D4C41"/>
<path d="M199.825 8.20874C197.018 10.4557 194.148 12.6137 191.268 14.7587L186.952 17.9477C186.619 18.2147 186.315 18.4897 186.083 18.7987C185.852 19.0997 185.703 19.4587 185.546 19.8777C185.266 20.7437 184.721 21.6467 184.118 22.3337C181.643 25.0167 179.092 27.5077 176.422 29.9357C175.086 31.1407 173.736 32.3287 172.367 33.4937C170.975 34.6327 169.59 35.7787 168.149 36.8547L172.039 33.1287C173.339 31.8937 174.626 30.6457 175.892 29.3777C178.411 26.8457 180.978 24.2947 183.356 21.6867C183.932 21.0207 184.345 20.3697 184.635 19.5277C184.796 19.1107 184.994 18.6287 185.315 18.2167C185.627 17.8097 185.999 17.4827 186.375 17.2007C187.873 16.1437 189.325 15.1377 190.825 14.1347C193.797 12.1197 196.779 10.1197 199.825 8.20874Z" fill="#6D4C41"/>
<path d="M191.589 9.62476C189.628 11.2128 187.659 12.7697 185.731 14.3737C183.81 15.9867 181.893 17.5988 180.027 19.2698C178.145 20.9238 176.316 22.6338 174.485 24.3478C173.571 25.2068 172.67 26.0798 171.775 26.9618L169.067 29.5948C169.812 28.5758 170.62 27.6088 171.416 26.6278C172.242 25.6748 173.085 24.7358 173.939 23.8058C175.653 21.9518 177.482 20.2058 179.364 18.5218C181.262 16.8558 183.214 15.2488 185.26 13.7698C187.299 12.2828 189.394 10.8728 191.589 9.62476Z" fill="#6D4C41"/>
<path d="M215.085 27.5518C216.577 28.5508 217.944 29.7368 219.227 31.0098C220.466 32.3238 221.612 33.7237 222.682 35.1777C224.808 38.0987 226.593 41.2298 228.425 44.2988C230.24 47.3808 232.121 50.3978 234.327 53.1938C235.418 54.6018 236.579 55.9597 237.764 57.2997L241.315 61.3378C239.981 60.1358 238.693 58.8888 237.406 57.6348C236.144 56.3578 234.909 55.0478 233.731 53.6808C231.351 50.9588 229.403 47.8858 227.565 44.8078C225.746 41.7108 223.999 38.5948 222.053 35.6128C220.094 32.6458 217.832 29.8708 215.085 27.5518Z" fill="#6D4C41"/>
<path d="M211.811 10.4487C213.668 11.8127 215.452 13.2587 217.237 14.6977L222.566 19.0357C224.333 20.4907 226.124 21.9107 227.911 23.3397C228.805 24.0537 229.712 24.7527 230.624 25.4457L233.354 27.5487C232.327 27.0257 231.342 26.4317 230.346 25.8497C229.372 25.2357 228.41 24.6027 227.454 23.9587C225.546 22.6657 223.724 21.2547 221.934 19.8097C220.158 18.3457 218.413 16.8477 216.735 15.2757C215.052 13.7137 213.395 12.1227 211.811 10.4487Z" fill="#6D4C41"/>
<path d="M261.408 28.1157C263.859 31.0957 266.255 34.1117 268.674 37.1087C271.094 40.1037 273.479 43.1267 275.937 46.0897C278.332 49.1037 280.796 52.0617 283.231 55.0457L286.895 59.5137L290.534 64.0097C289.168 62.6467 287.856 61.2327 286.526 59.8357L282.646 55.5447C280.086 52.6597 277.623 49.6897 275.163 46.7197C272.765 43.6987 270.364 40.6787 268.07 37.5777C265.773 34.4777 263.527 31.3417 261.408 28.1157Z" fill="#6D4C41"/>
<path d="M259.976 32.7109C262.18 35.3709 264.299 38.0909 266.468 40.7629C268.646 43.4279 270.826 46.0859 273.13 48.6299C275.416 51.1889 277.823 53.634 280.355 55.946L282.288 57.644L284.29 59.2629L286.341 60.8279C287.051 61.3129 287.755 61.8089 288.458 62.3139C287.7 61.9019 286.945 61.482 286.195 61.049L284.002 59.6589L281.895 58.1379L279.852 56.528C277.17 54.326 274.71 51.8659 272.387 49.2989C270.08 46.7139 267.904 44.0199 265.862 41.2329C263.812 38.4509 261.847 35.6139 259.976 32.7109Z" fill="#6D4C41"/>
<path d="M232.048 34.0698L234.466 38.4298C235.268 39.8808 236.093 41.3168 236.995 42.6978C238.79 45.4668 240.804 48.0618 243.254 50.2548L246.947 53.5948C248.165 54.7438 249.347 55.9308 250.454 57.1808C251.565 58.4268 252.642 59.6988 253.691 60.9918C254.716 62.3048 255.745 63.6098 256.725 64.9568L253.32 61.3128C252.199 60.0888 251.063 58.8818 249.895 57.7098C248.717 56.5488 247.548 55.3828 246.309 54.2948C245.081 53.1938 243.809 52.1218 242.574 50.9878C240.081 48.7248 238 45.9988 236.341 43.0968C234.665 40.1958 233.304 37.1518 232.048 34.0698Z" fill="#6D4C41"/>
<path d="M196.996 17.0938C195.213 19.0308 193.367 20.8978 191.521 22.7628C189.683 24.6368 187.803 26.4647 185.933 28.3047C184.047 30.1267 182.17 31.9587 180.25 33.7487L177.375 36.4388C176.394 37.3128 175.439 38.2148 174.44 39.0728C175.277 38.0558 176.163 37.0857 177.027 36.0938L179.707 33.2038C181.502 31.2838 183.363 29.4298 185.236 27.5888C187.126 25.7648 189.027 23.9518 190.994 22.2078C192.952 20.4558 194.932 18.7287 196.996 17.0938Z" fill="#6D4C41"/>
<path d="M118.026 17.8389C116.856 20.2979 115.52 22.6749 114.088 24.9919C112.665 27.3159 111.108 29.5569 109.474 31.7389C107.826 33.9099 106.104 36.0259 104.258 38.0319C103.339 39.0339 102.403 40.0389 101.365 40.9439C100.31 41.8209 99.164 42.6259 97.883 43.1029C99.063 42.4209 100.108 41.5629 101.03 40.5859C101.974 39.6319 102.829 38.5899 103.675 37.5299C105.372 35.4199 107.058 33.3049 108.676 31.1369C110.318 28.9869 111.881 26.7799 113.448 24.5709C114.23 23.4649 114.994 22.3459 115.743 21.2159L118.026 17.8389Z" fill="#6D4C41"/>
<path d="M110.899 37.7288C110.149 40.5418 108.567 43.1208 106.565 45.2588C104.546 47.3808 102.06 49.1068 99.293 50.0138C101.7 48.3968 103.906 46.6338 105.838 44.5728C107.787 42.5278 109.424 40.2238 110.899 37.7288Z" fill="#6D4C41"/>
<path d="M55.219 41.3079C54.641 41.9739 54.055 42.6379 53.458 43.2929L51.576 45.1699L49.582 46.9289L47.523 48.6109C44.742 50.8109 41.799 52.7819 38.885 54.7659C35.957 56.7309 33.049 58.7079 30.249 60.8259L28.18 62.4548L26.186 64.1749L24.255 65.9719C23.652 66.6119 23.041 67.2459 22.419 67.8769C22.957 67.1779 23.502 66.4808 24.061 65.7908L25.847 63.8199L27.767 61.9769L29.77 60.2239C32.489 57.9389 35.408 55.9219 38.327 53.9369C41.26 51.9709 44.199 50.0329 47.065 47.9979C49.922 45.9539 52.674 43.7599 55.219 41.3079Z" fill="#6D4C41"/>
<path d="M80.551 48.4077C82.887 49.4967 85.172 50.6847 87.383 52.0297C89.598 53.3617 91.704 54.9137 93.606 56.6967C94.543 57.5937 95.435 58.5057 96.389 59.3207C97.324 60.1527 98.386 60.8137 99.476 61.4767C100.568 62.1327 101.707 62.7417 102.804 63.4327C103.883 64.1497 104.941 64.9327 105.782 65.9167C104.784 65.0977 103.704 64.4217 102.559 63.8567C101.431 63.2627 100.263 62.7347 99.105 62.1497C97.945 61.5777 96.81 60.8777 95.783 60.0457C94.764 59.2117 93.852 58.2887 92.921 57.4217C91.088 55.6707 89.056 54.1387 86.966 52.6697C84.869 51.2097 82.684 49.8557 80.551 48.4077Z" fill="#6D4C41"/>
</svg>
